<?xml version="1.0" standalone="no"?>
<!DOCTYPE svg PUBLIC "-//W3C//DTD SVG 20010904//EN"
 "http://www.w3.org/TR/2001/REC-SVG-20010904/DTD/svg10.dtd">
<svg version="1.0" xmlns="http://www.w3.org/2000/svg"
 width="200.000000pt" height="200.000000pt" viewBox="0 0 200.000000 200.000000"
 preserveAspectRatio="xMidYMid meet">
<metadata>
Created by potrace 1.14, written by Peter Selinger 2001-2017
</metadata>
<g transform="translate(0.000000,200.000000) scale(0.100000,-0.100000)"
fill="#000000" stroke="none">
<path d="M805 1566 c-13 -19 -14 -29 -5 -45 6 -12 14 -21 18 -22 4 -1 21 -2
37 -4 17 -1 82 -26 145 -53 129 -57 125 -58 156 25 15 38 15 46 3 54 -21 13
-32 6 -49 -29 l-15 -31 -95 40 c-52 22 -105 51 -118 64 -29 32 -57 32 -77 1z
m55 -11 c10 -12 10 -18 0 -29 -14 -18 -40 -10 -40 13 0 32 20 40 40 16z"/>
<path d="M1240 1582 c-21 -7 -30 -23 -30 -54 0 -14 -9 -48 -21 -75 -38 -88
-79 -188 -79 -195 0 -10 88 -48 110 -48 19 0 30 17 23 38 -3 6 -10 12 -17 12
-7 0 -20 6 -30 13 -17 12 -15 19 23 112 23 54 51 105 62 113 38 27 3 100 -41
84z m38 -45 c4 -20 -25 -34 -40 -19 -15 15 -1 44 19 40 10 -2 19 -11 21 -21z"/>
<path d="M976 1564 c-12 -31 -5 -40 47 -59 28 -11 55 -21 58 -23 3 -1 11 8 17
22 10 23 8 25 -49 50 -71 31 -65 30 -73 10z"/>
<path d="M847 1430 c-4 -15 2 -24 26 -36 18 -9 33 -18 35 -19 7 -6 -74 -193
-95 -218 -28 -35 -28 -42 -2 -68 14 -14 27 -18 42 -13 30 9 29 7 32 56 2 24
24 92 49 151 25 60 46 112 46 117 0 9 -92 50 -113 50 -8 0 -17 -9 -20 -20z
m13 -321 c-12 -22 -40 -14 -40 11 0 22 20 31 37 18 9 -7 10 -16 3 -29z"/>
<path d="M1243 1398 c-13 -17 -47 -107 -42 -112 2 -2 13 -6 25 -10 17 -5 24 2
42 47 26 63 27 73 6 81 -21 8 -20 8 -31 -6z"/>
<path d="M842 1377 c-5 -6 -17 -34 -27 -60 -16 -42 -16 -50 -4 -58 27 -17 36
-9 58 47 25 67 25 61 2 73 -13 8 -22 7 -29 -2z"/>
<path d="M972 1261 c-17 -10 -52 -100 -46 -116 10 -26 40 -16 57 19 l16 35
101 -43 c56 -24 107 -52 116 -64 8 -12 23 -22 33 -22 21 0 51 30 51 52 0 21
-36 51 -54 45 -13 -5 -154 47 -237 88 -15 7 -32 10 -37 6z m308 -139 c0 -15
-23 -30 -36 -25 -14 5 -19 35 -8 46 8 7 44 -10 44 -21z"/>
<path d="M996 1164 c-3 -9 -6 -20 -6 -25 0 -12 108 -61 119 -54 14 8 19 43 7
48 -114 46 -114 46 -120 31z"/>
<path d="M252 990 c-48 -22 -62 -44 -62 -100 0 -75 78 -124 148 -94 23 9 32
19 30 31 -3 15 -12 17 -49 15 -52 -4 -79 14 -79 52 0 38 32 59 79 51 33 -5 42
-4 47 10 15 39 -56 61 -114 35z"/>
<path d="M453 1002 l-63 -3 0 -104 c0 -105 0 -105 24 -105 21 0 25 5 28 38 3
34 5 37 38 40 64 6 63 52 -1 52 -28 0 -39 4 -39 15 0 11 13 15 54 15 40 0 55
4 60 16 13 33 -8 40 -101 36z"/>
<path d="M688 1002 l-38 -3 0 -105 0 -104 25 0 c23 0 25 4 25 40 l0 40 40 0
c36 0 40 3 40 25 0 23 -4 25 -40 25 -29 0 -40 4 -40 15 0 11 13 15 53 15 60 0
67 3 60 30 -5 19 -53 28 -125 22z"/>
<path d="M1087 998 c-30 -11 -43 -43 -33 -82 4 -17 17 -28 43 -36 50 -16 57
-24 38 -40 -13 -11 -18 -10 -33 4 -22 19 -34 20 -50 4 -30 -30 46 -76 95 -57
74 28 69 110 -8 126 -34 6 -46 20 -31 35 7 7 17 6 33 -2 18 -10 24 -10 33 2 8
10 24 13 53 10 l42 -4 3 -82 c3 -79 4 -81 27 -81 25 0 25 1 24 83 l-1 82 39 0
c38 0 54 20 28 35 -18 12 -181 7 -189 -4 -4 -8 -17 -7 -43 4 -20 8 -38 15 -39
14 -2 0 -15 -5 -31 -11z"/>
<path d="M912 988 c-17 -21 -82 -166 -82 -183 0 -9 9 -15 25 -15 16 0 25 6 25
15 0 35 94 39 105 5 8 -25 31 -32 46 -14 10 12 3 32 -34 109 -45 92 -63 109
-85 83z m31 -111 c-3 -5 -10 -4 -15 1 -6 6 -7 16 -3 22 6 9 9 9 16 -1 4 -7 5
-17 2 -22z"/>
<path d="M563 710 c-84 -51 -59 -181 38 -196 45 -7 89 10 89 35 0 24 -18 31
-45 19 -21 -9 -74 4 -76 19 0 5 -2 18 -5 30 -6 32 39 65 72 52 35 -13 42 -12
54 11 8 16 6 21 -11 31 -36 19 -84 19 -116 -1z"/>
<path d="M719 722 c-1 -4 -3 -51 -5 -105 -3 -82 -1 -99 12 -104 22 -8 39 13
39 50 0 29 3 31 37 33 37 2 37 2 40 -39 2 -35 7 -43 26 -45 25 -4 23 -10 26
113 2 88 -5 106 -34 98 -16 -4 -20 -14 -20 -44 0 -39 0 -39 -38 -39 -38 0 -39
1 -37 35 2 19 -2 38 -9 42 -15 10 -36 13 -37 5z"/>
<path d="M922 716 c-9 -16 -9 -168 0 -188 7 -15 22 -18 77 -18 46 0 72 5 80
14 20 23 -10 43 -63 41 -58 -2 -65 22 -8 27 32 3 37 6 37 28 0 22 -4 25 -37
24 -27 -2 -38 2 -38 12 0 16 -1 15 55 18 51 1 68 12 56 34 -8 13 -25 17 -81
18 -39 0 -74 -4 -78 -10z"/>
<path d="M1152 710 c-37 -23 -52 -48 -52 -90 0 -83 79 -133 155 -98 46 21 23
63 -25 45 -55 -21 -102 39 -67 86 13 18 48 23 83 12 15 -5 23 -2 28 11 17 43
-68 66 -122 34z"/>
<path d="M1311 721 c-8 -5 -11 -38 -9 -107 3 -91 5 -99 23 -99 16 0 21 8 23
40 l4 40 37 -44 c27 -31 43 -42 54 -38 25 9 21 29 -13 67 -16 18 -30 36 -30
40 0 3 14 19 30 35 33 32 39 60 13 69 -12 5 -28 -6 -54 -36 l-38 -43 -1 36 c0
37 -16 54 -39 40z"/>
<path d="M1497 715 c-8 -8 -12 -44 -12 -106 l1 -94 79 0 c75 0 80 1 83 23 2
15 -2 22 -15 23 -101 6 -108 8 -97 18 5 5 25 11 44 13 25 2 36 8 38 22 5 24
-12 34 -49 31 -23 -2 -29 1 -27 13 2 12 16 16 53 16 44 1 50 4 53 24 4 25 7
24 -76 27 -40 2 -67 -2 -75 -10z"/>
<path d="M1683 723 c-20 -7 -18 -202 2 -209 22 -9 44 13 38 36 -4 16 0 20 20
20 18 0 28 -8 37 -30 13 -31 25 -36 49 -21 12 8 12 14 1 40 -10 24 -10 37 -1
59 13 31 4 69 -22 91 -16 13 -102 23 -124 14z m100 -67 c7 -19 -17 -39 -40
-34 -10 2 -19 13 -21 26 -3 18 1 22 26 22 17 0 32 -6 35 -14z"/>
</g>
</svg>
